<svg xmlns="http://www.w3.org/2000/svg" viewBox="0 0 321.66 132.99"><defs><style>.cls-1{fill:#a9c23f}</style></defs><g id="Слой_2" data-name="Слой 2"><g id="Layer_1" data-name="Layer 1"><path class="cls-1" d="M321.55 0l-110.8.22a14 14 0 00-13.92 14l.11 53.44 110.8-.22a13.94 13.94 0 0013.92-13.95c0-17-.09-44.41-.11-53.46"/><path d="M295 35.11l11.71 14.64h-7l-9.05-11-4.66 4.49v6.52h-5.58c0-11.82 0-23.66-.06-35.69h5.5v21.41l.56.25 12.29-11.48h6.94L295 35.11M255.55 49.9h-5.19c-.11-.93-.22-1.81-.36-3a12.58 12.58 0 01-11.82 3.1 12.06 12.06 0 01-7-4.28c-3.85-4.82-3.65-13 .39-17.51 4.38-4.88 11.36-5.35 18-1.07.13-.95.25-1.81.38-2.78h5.49c0 8.43 0 16.88.05 25.51m-13.4-4.56c4.65 0 7.8-3.27 7.8-8.06s-3.19-8.16-7.69-8.25-8 3.49-7.92 8.3 3.21 8 7.87 8m-17.51-.67l1.56 4a10.22 10.22 0 01-9.68 1.07 6.45 6.45 0 01-4.61-6.13c-.19-8.2-.1-16.41-.11-24.8h5.62v5.51h6.83v4.6h-6.76v11.96c0 3.89 2.15 5.4 5.88 4.2.35-.11.67-.24 1.23-.43m50.92.67c.1 1.57.18 2.91.25 4.2-5.93 2.58-11.71-.71-11.82-6.81-.15-9.15-.06-18.31-.07-27.47a5 5 0 01.16-.8h5.46c0 .81.11 1.64.12 2.47v23c0 .71 0 1.43.08 2.14.25 2.32 1.31 3.27 3.65 3.31h2.13" fill="#fff"/><path d="M9.36 130.36A24.11 24.11 0 010 122.72l7.34-9.11q5.84 8.16 14 8.15 11.32 0 11.31-13.2l-.1-47.19L7 61.42V50.28l38.71-.07.11 57.61q0 12.56-6.09 18.85t-18 6.32a28.91 28.91 0 01-12.42-2.63M114.8 67l.11 54.55h-12.15v-6.94a20.36 20.36 0 01-7.65 5.68 24.41 24.41 0 01-9.9 2q-10.93 0-17.23-6t-6.31-18l-.07-31.15h12.77l.06 29.41c0 4.91 1.12 8.56 3.34 11s5.37 3.61 9.46 3.6q6.84 0 10.87-4.26t4-12.21l-.1-27.63m34.16 53.45a32.22 32.22 0 01-10.16-4.37l4.88-9.71a31.2 31.2 0 008.85 3.91 36.55 36.55 0 0010.16 1.47q11.44 0 11.43-6a4 4 0 00-2.92-4 49.6 49.6 0 00-9.35-2.13 74 74 0 01-11-2.33 16.75 16.75 0 01-7.37-4.63q-3.12-3.32-3.13-9.24A14.53 14.53 0 01134.07 71q6.48-4.67 17.51-4.68a50.53 50.53 0 0111.23 1.25A31.44 31.44 0 01172 71l-4.88 9.71a30.31 30.31 0 00-15.63-4.06q-5.62 0-8.53 1.71a5 5 0 00-2.9 4.45 4.42 4.42 0 003.12 4.33 49.34 49.34 0 009.66 2.38 74.28 74.28 0 0110.73 2.33 16.82 16.82 0 017.21 4.48q3 3.17 3 9a14.2 14.2 0 01-6.62 12.27q-6.63 4.62-18.07 4.64a49.14 49.14 0 01-13-1.72m79.48-2.11a15 15 0 01-5.45 2.76 24.77 24.77 0 01-6.8.94q-9 0-13.9-4.67t-4.93-13.68l-.09-48.93h12.76V67.6h12.77v12.77h-12.77v23.08a8.51 8.51 0 002 6.07 7.33 7.33 0 005.58 2.08 11.17 11.17 0 007.14-2.26" fill="#1d1d1b"/><path class="cls-1" transform="rotate(-.12 38.167 28.688)" d="M32.5 24.8h13.16v13.16H32.5z"/></g></g></svg>