<svg xmlns="http://www.w3.org/2000/svg" viewBox="0 0 349.93 133.12"><defs><style>.cls-1{fill:#784e90}</style></defs><g id="Слой_2" data-name="Слой 2"><g id="Layer_1" data-name="Layer 1"><path class="cls-1" d="M349.93 0H211a14 14 0 00-14 14v53.66h139a14 14 0 0014-14V-.01"/><path d="M214.22 48a8.21 8.21 0 01-2.22-6.15V14.39h6v27q0 3.82 3.59 3.82a4.68 4.68 0 002.14-.48l.29 4.78a10.28 10.28 0 01-3.58.62 8.48 8.48 0 01-6.22-2.13m32.42-5.67l3.15 3.67a10.44 10.44 0 01-4.3 3.1 15.9 15.9 0 01-5.93 1 15.68 15.68 0 01-7.4-1.67 12 12 0 01-4.95-4.66 13.16 13.16 0 01-1.74-6.76 13.36 13.36 0 011.7-6.71 12 12 0 014.68-4.65 13.53 13.53 0 016.76-1.65 13.68 13.68 0 016.52 1.56 11.64 11.64 0 014.66 4.44 12.94 12.94 0 011.72 6.76L232 40.61a6.66 6.66 0 002.88 3.39 9.54 9.54 0 004.83 1.15 9.44 9.44 0 006.93-2.77M233.28 31a8.08 8.08 0 00-2 5.78L245.67 34a6.73 6.73 0 00-2.5-3.78 7.36 7.36 0 00-4.56-1.43 7 7 0 00-5.33 2.21m48.89-6.68v25.51h-5.68v-3.3a9.33 9.33 0 01-3.66 2.73 12.4 12.4 0 01-4.8.9 13.57 13.57 0 01-6.66-1.62 11.52 11.52 0 01-4.59-4.54 14 14 0 01-1.65-6.88 13.86 13.86 0 011.65-6.85 11.57 11.57 0 014.59-4.56A13.47 13.47 0 01268 24a11.83 11.83 0 014.56.86 10.14 10.14 0 013.61 2.53v-3.1m-2.05 18.53a7.91 7.91 0 002.15-5.78 8 8 0 00-2.15-5.78 7.32 7.32 0 00-5.45-2.19 7.21 7.21 0 00-5.42 2.19 8 8 0 00-2.13 5.78 7.94 7.94 0 002.13 5.78 7.18 7.18 0 005.42 2.2 7.29 7.29 0 005.45-2.2M304.77 24v5.69a7.34 7.34 0 00-1.39-.15 7.21 7.21 0 00-5.44 2 8.11 8.11 0 00-2 5.86v12.43h-6V24.32h5.69v3.73q2.58-4 9.08-4m27.29 2.8q3 2.82 3 8.36v14.62h-6V36a7.16 7.16 0 00-1.57-5 5.85 5.85 0 00-4.49-1.7 6.9 6.9 0 00-5.21 2 7.88 7.88 0 00-1.91 5.71v12.9h-6V24.32h5.68v3.3a9.39 9.39 0 013.73-2.68 13.46 13.46 0 015.07-.94 10.67 10.67 0 017.7 2.85" fill="#fff"/><path d="M9.37 130.48A24.07 24.07 0 010 122.84l7.34-9.11q5.84 8.16 14 8.15 11.34 0 11.31-13.21l-.09-47.22L7 61.51V50.37l38.73-.08.12 57.64q0 12.57-6.1 18.87t-18 6.32a28.77 28.77 0 01-12.42-2.64m105.53-63.37l.11 54.58h-12.16v-6.95a20.23 20.23 0 01-7.66 5.69 24.42 24.42 0 01-9.91 2q-10.94 0-17.23-6t-6.32-18l-.06-31.17H74.4l.06 29.43q0 7.37 3.35 11t9.46 3.61q6.84 0 10.87-4.27t4-12.22V67.22m34.09 53.4a32.56 32.56 0 01-10.12-4.37l4.88-9.72a31.62 31.62 0 008.85 3.92 36.61 36.61 0 0010.16 1.46q11.44 0 11.44-6a4 4 0 00-2.92-4 49.94 49.94 0 00-9.36-2.13 75.49 75.49 0 01-11-2.33 16.84 16.84 0 01-7.37-4.63q-3.12-3.32-3.13-9.25a14.55 14.55 0 016.46-12.43q6.48-4.65 17.52-4.68a50.62 50.62 0 0111.24 1.25 31.62 31.62 0 019.21 3.41l-4.89 9.72a30.23 30.23 0 00-15.64-4.06q-5.62 0-8.53 1.7a5 5 0 00-2.9 4.46 4.42 4.42 0 003.12 4.33 49.34 49.34 0 009.66 2.38A75.83 75.83 0 01163.67 92a16.88 16.88 0 017.21 4.49q3 3.16 3 9a14.21 14.21 0 01-6.61 12.28q-6.65 4.62-18.08 4.64a49.29 49.29 0 01-13-1.72m79.5-2.17a15 15 0 01-5.46 2.77 24.69 24.69 0 01-6.79.94q-9 0-13.91-4.68t-4.93-13.68l-.1-48.95h12.77V67.7h12.78v12.78h-12.78l.05 23.09a8.46 8.46 0 002 6.07 7.34 7.34 0 005.68 2.06 11.28 11.28 0 007.15-2.26" fill="#1d1d1b"/><path class="cls-1" transform="rotate(-.11 41.64 31.292)" d="M32.52 24.87h13.17v13.17H32.52z"/></g></g></svg>