<svg xmlns="http://www.w3.org/2000/svg" viewBox="0 0 360.04 103.45"><defs><style>.cls-1{fill:#fff}</style></defs><g id="Слой_2" data-name="Слой 2"><g id="Layer_1" data-name="Layer 1"><path class="cls-1" d="M360 .4L163.61 0c-9.19 0-14.46 5.76-14.46 14.05v38.07l196.43.4c8 0 14.46-6.72 14.46-15V2.84"/><path d="M7.08 101.38a18.33 18.33 0 01-7.08-6l5.55-7.14q4.41 6.41 10.6 6.39 8.57 0 8.55-10.36l-.07-37H5.31v-8.74l29.28-.06.09 45.22q0 9.86-4.61 14.8t-13.59 5a21.32 21.32 0 01-9.39-2.07m79.74-49.75l.08 42.81h-9.19v-5.43a15.4 15.4 0 01-5.79 4.46 18.06 18.06 0 01-7.49 1.58q-8.27 0-13-4.74t-4.81-14.14l-.05-24.45h9.66v23.09q0 5.76 2.53 8.61A9 9 0 0066 86.27a10.6 10.6 0 008.22-3.35q3-3.33 3-9.58V51.69M103 93.65a24.32 24.32 0 01-7.66-3.43L99 82.59a23.49 23.49 0 006.69 3.08 26.7 26.7 0 007.69 1.14q8.66 0 8.65-4.75a3.17 3.17 0 00-2.21-3.12 37.5 37.5 0 00-7.07-1.67 54.84 54.84 0 01-8.31-1.82 12.7 12.7 0 01-5.57-3.64q-2.37-2.59-2.37-7.25a11.53 11.53 0 014.89-9.75q4.89-3.66 13.24-3.68a37.42 37.42 0 018.5 1 23.31 23.31 0 017 2.67l-3.7 7.62a22.21 22.21 0 00-11.82-3.18 12.66 12.66 0 00-6.45 1.34 4 4 0 00-2.2 3.49 3.48 3.48 0 002.37 3.4 35.76 35.76 0 007.3 1.87 54.63 54.63 0 018.11 1.83 12.68 12.68 0 015.46 3.51q2.28 2.49 2.29 7a11.27 11.27 0 01-5 9.63Q121.45 95 112.8 95a35.57 35.57 0 01-9.8-1.35M163.05 92a11.14 11.14 0 01-4.13 2.17 18 18 0 01-5.13.74q-6.79 0-10.52-3.67t-3.73-10.74l-.07-38.4h9.66v10h9.66v10h-9.66v18.11a6.83 6.83 0 001.59 4.79 5.44 5.44 0 004.21 1.64 8.35 8.35 0 005.41-1.78" fill="#1d1d1b"/><path class="cls-1" transform="translate(-.05 .06)" d="M24.58 18.53h9.95v10.33h-9.95z"/><path d="M162.93 37.89a12.19 12.19 0 01-3.68-1.6l1.75-3.54a11.49 11.49 0 003.22 1.43 13.43 13.43 0 003.71.54q4.17 0 4.17-2.19a1.48 1.48 0 00-1.07-1.46 18.58 18.58 0 00-3.4-.78 28.26 28.26 0 01-4-.85 6.21 6.21 0 01-2.68-1.7 4.71 4.71 0 01-1.14-3.37 5.3 5.3 0 012.37-4.52 10.73 10.73 0 016.38-1.69 18.54 18.54 0 014.1.46 11.57 11.57 0 013.34 1.25l-1.79 3.54a11 11 0 00-5.7-1.49 6.27 6.27 0 00-3.1.61 1.83 1.83 0 00-1.06 1.62 1.6 1.6 0 001.13 1.58 17.83 17.83 0 003.52.88 27.91 27.91 0 013.91.85 6.2 6.2 0 012.62 1.64 4.58 4.58 0 011.1 3.28 5.17 5.17 0 01-2.42 4.46 11.4 11.4 0 01-6.59 1.68 17.91 17.91 0 01-4.73-.63m28.97-.71a5.38 5.38 0 01-2 1 8.67 8.67 0 01-2.47.34 7 7 0 01-5.06-1.71 6.6 6.6 0 01-1.79-5V14h4.65v4.54h5.32v3.72h-5.32v9.46a3.11 3.11 0 00.73 2.21 2.66 2.66 0 002 .77 4.1 4.1 0 002.6-.82m23.93-15.5v19.88H210v-2.57a7.22 7.22 0 01-2.85 2.12 9.66 9.66 0 01-3.74.71 10.5 10.5 0 01-5.19-1.27 9 9 0 01-3.58-3.57 10.9 10.9 0 01-1.28-5.36 10.79 10.79 0 011.3-5.32 9.08 9.08 0 013.58-3.56 10.6 10.6 0 015.19-1.26 9.21 9.21 0 013.56.67 7.71 7.71 0 012.8 2v-2.47m-1.59 14.44a6.18 6.18 0 001.67-4.5 6.18 6.18 0 00-1.67-4.5 5.7 5.7 0 00-4.2-1.72 5.62 5.62 0 00-4.22 1.72 6.21 6.21 0 00-1.66 4.5 6.21 6.21 0 001.66 4.5 5.59 5.59 0 004.22 1.72 5.67 5.67 0 004.25-1.72m29.61-12.47c1.52 1.47 2.27 3.64 2.27 6.52v11.39h-4.65v-10.8a5.57 5.57 0 00-1.23-3.92 4.54 4.54 0 00-3.5-1.32 5.35 5.35 0 00-4.05 1.54 6.12 6.12 0 00-1.49 4.45v10h-4.66V18.38H225V21a7.27 7.27 0 012.9-2.08 10.34 10.34 0 014-.71 8.31 8.31 0 016 2.19m27.8-9.76v27.62h-4.46v-2.57a7.22 7.22 0 01-2.85 2.12 9.66 9.66 0 01-3.74.71 10.44 10.44 0 01-5.16-1.27 9.11 9.11 0 01-3.59-3.59 10.83 10.83 0 01-1.3-5.34 10.72 10.72 0 011.3-5.32 9.22 9.22 0 013.59-3.58 10.54 10.54 0 015.16-1.26 9.36 9.36 0 013.61.67 7.24 7.24 0 012.79 2V10.64m-2.83 23.13a5.56 5.56 0 002.13-2.17 7.29 7.29 0 000-6.56 5.56 5.56 0 00-2.13-2.17 6.29 6.29 0 00-6 0 5.53 5.53 0 00-2.15 2.13 7.29 7.29 0 000 6.56 5.53 5.53 0 002.12 2.17 6.29 6.29 0 006 0m33.05-15.35v19.88h-4.43v-2.57a7.22 7.22 0 01-2.81 2.12 9.62 9.62 0 01-3.74.71 10.45 10.45 0 01-5.26-1.27 9 9 0 01-3.58-3.57 10.9 10.9 0 01-1.28-5.36 10.79 10.79 0 011.31-5.32 9.08 9.08 0 013.55-3.58 10.55 10.55 0 015.19-1.26 9.09 9.09 0 013.55.67 7.7 7.7 0 012.82 2v-2.45M285 32.82a6.18 6.18 0 001.67-4.5 6.18 6.18 0 00-1.67-4.5 5.72 5.72 0 00-4.25-1.72 5.66 5.66 0 00-4.23 1.72 6.21 6.21 0 00-1.65 4.5 6.21 6.21 0 001.65 4.5 5.62 5.62 0 004.23 1.72 5.68 5.68 0 004.25-1.72m23.84-14.66v4.43a5.32 5.32 0 00-1.07-.11 5.61 5.61 0 00-4.25 1.58 6.28 6.28 0 00-1.52 4.56v9.64h-4.65V18.38h4.42v2.9q2-3.12 7.07-3.12m27.99 19.73a12.08 12.08 0 01-3.68-1.6l1.79-3.54a11.3 11.3 0 003.21 1.43 13.43 13.43 0 003.71.54q4.17 0 4.17-2.19a1.47 1.47 0 00-1.03-1.46 18.73 18.73 0 00-3.41-.78 28.26 28.26 0 01-4-.85 6.21 6.21 0 01-2.68-1.7 4.71 4.71 0 01-1.14-3.37 5.3 5.3 0 012.37-4.52 10.73 10.73 0 016.38-1.69 18.54 18.54 0 014.1.46 11.69 11.69 0 013.35 1.25l-1.79 3.54a11 11 0 00-5.7-1.49 6.27 6.27 0 00-3.1.61 1.84 1.84 0 00-1.07 1.62c0 .75.86 1.27 1.62 1.58a11.89 11.89 0 003 .88 27.41 27.41 0 013.9.85 6.18 6.18 0 012.63 1.64 4.58 4.58 0 011.1 3.28 5.17 5.17 0 01-2.42 4.46 11.4 11.4 0 01-6.59 1.68 17.91 17.91 0 01-4.73-.63M331.21 11v27.63h-4.47v-2.57a7.09 7.09 0 01-2.84 2.12 9.67 9.67 0 01-3.75.71 10.5 10.5 0 01-5.15-1.26 9.14 9.14 0 01-3.59-3.6 10.72 10.72 0 01-1.3-5.34 10.62 10.62 0 011.3-5.32A9.06 9.06 0 01315 19.8a10.4 10.4 0 015.15-1.27 9.45 9.45 0 013.62.67 7.35 7.35 0 012.79 2V11m-2.83 23.14a5.56 5.56 0 002.12-2.14 7.27 7.27 0 000-6.55 5.49 5.49 0 00-2.12-2.18 6.36 6.36 0 00-6 0 5.43 5.43 0 00-2.12 2.18 6.54 6.54 0 00-.78 3.27 6.6 6.6 0 00.78 3.28 5.49 5.49 0 002.12 2.18 6.36 6.36 0 006 0" fill="#395382"/></g></g></svg>