<svg xmlns="http://www.w3.org/2000/svg" width="75" height="75" viewBox="0 0 350 350"><g stroke-miterlimit="10" fill="none"><path d="M41.6 285.705v44.759c0 9.756 7.936 17.692 17.692 17.692h227.631c9.756 0 17.692-7.936 17.692-17.692V77.785c0-4.722-1.84-9.165-5.182-12.51L237.392 3.237a17.575 17.575 0 00-12.51-5.181H59.291C49.536-1.944 41.6 5.99 41.6 15.747v269.958z" fill="#dcdfe1"/><path d="M41.6 242.02v88.444c0 9.756 7.936 17.692 17.692 17.692h227.631c9.756 0 17.692-7.936 17.692-17.692V242.02H41.6z" fill="#ea5440"/><path fill="#c4cbd2" d="M232.506 69.67l72.12 71.849-.31-66.714z"/><path d="M299.43 65.275L237.391 3.237c-2.626-2.63-5.948-4.287-9.542-4.894V58.18c0 9.173 7.464 16.638 16.637 16.638h59.836c-.607-3.59-2.264-6.913-4.894-9.542z" fill="#abb2b8"/><path d="M108.47 208.166c-3.793 0-6.29-2.027-7.66-3.606l-.595-.922c-2.844-6.173-4.085-15.848 6.165-26.856 8.523-9.15 23.138-17.128 39.78-23.24 5.963-11.082 11.541-22.977 16-34.329-10.64-17.489-15.082-35.88-10.698-47.928 2.326-6.395 7.138-10.418 13.552-11.332l.549-.039c7.01 0 11.849 4.046 13.634 11.386 2.502 10.305-1.326 27.83-8.422 46.949a106.17 106.17 0 009.803 12.716 131.226 131.226 0 0010.6 11.37c17.965-2.489 34.283-2.256 44.257 1.51 10.153 3.832 12.444 10.262 12.58 14.984v.078c.05 6.142-3.007 10.79-8.394 12.755-10.834 3.956-31.249-3.174-51.173-21.2-12.149 1.93-24.97 5.115-36.82 9.262-12.4 22.504-26.393 41.409-36.468 46.61-2.571 1.323-4.792 1.832-6.69 1.832zm-1.432-8.336c.622.548 1.781 1.015 4.551-.409 7.605-3.925 18.287-17.804 28.576-35.24-11.794 5.097-21.83 11.18-28.094 17.903-5.765 6.193-7.418 12.008-5.033 17.746zm91.87-50.737c16.318 13.023 31.497 17.652 38.036 15.26 1.54-.564 3.307-1.68 3.287-5.349-.039-1.31-.225-5.119-7.546-7.88-7.73-2.914-19.936-3.432-33.777-2.031zm-31.556-22.1a318.787 318.787 0 01-10.569 22.979 227.377 227.377 0 0124.884-6.096 143.084 143.084 0 01-6.982-7.83 113.22 113.22 0 01-7.333-9.053zm-1.513-59.29c-3.43.57-5.745 2.617-7.064 6.243-2.797 7.682-.564 21.212 6.928 35.66 5.212-15.18 7.85-28.55 5.928-36.466-1.116-4.602-3.42-5.387-5.792-5.438z" fill="#ea5440"/><path d="M126.783 264.797H109.77a3.889 3.889 0 00-3.89 3.89v53.028c0 2.151 1.742 3.89 3.89 3.89s3.89-1.739 3.89-3.89v-17.664h13.124c8.236 0 14.93-6.699 14.93-14.93v-9.394c0-8.232-6.698-14.93-14.93-14.93zm7.15 24.324c0 3.944-3.209 7.15-7.15 7.15H113.66v-23.694h13.124a7.155 7.155 0 017.15 7.15v9.394zm40.537 36.484h-15.874a3.889 3.889 0 01-3.89-3.89v-53.028a3.889 3.889 0 013.89-3.89h15.879c8.861 0 16.066 7.208 16.066 16.065v28.674c-.004 8.861-7.209 16.07-16.07 16.07zm-11.984-7.78h11.989c4.567 0 8.286-3.719 8.286-8.29v-28.673c0-4.57-3.72-8.285-8.286-8.285h-11.99v45.248zm73.957-53.028h-28.055a3.886 3.886 0 00-3.89 3.89v53.028c0 2.151 1.739 3.89 3.89 3.89s3.89-1.739 3.89-3.89v-22.624h14.482c2.151 0 3.89-1.739 3.89-3.89s-1.739-3.89-3.89-3.89h-14.482v-18.73h24.165c2.15 0 3.89-1.74 3.89-3.89s-1.74-3.894-3.89-3.894z" fill="#fff"/></g></svg>