<svg xmlns="http://www.w3.org/2000/svg" viewBox="0 0 360.04 103.45"><defs><style>.cls-1{fill:#395382;}.cls-2{fill:#1d1d1b;}.cls-3{fill:#fff;}</style></defs><g id="Слой_2" data-name="Слой 2"><g id="Layer_1" data-name="Layer 1"><path class="cls-1" d="M360,.4,163.61,0c-9.19,0-14.46,5.76-14.46,14.05V52.12l196.43.4c8,0,14.46-6.72,14.46-15,0-18.24,0-24.93,0-34.68"/><path class="cls-2" d="M7.08,101.38a18.33,18.33,0,0,1-7.08-6l5.55-7.14q4.41,6.41,10.6,6.39,8.57,0,8.55-10.36l-.07-37-19.32,0V38.53l29.28-.06.09,45.22q0,9.86-4.61,14.8t-13.59,5a21.32,21.32,0,0,1-9.39-2.07"/><path class="cls-2" d="M86.83,51.67l.08,42.81-9.19,0V89.05a15.4,15.4,0,0,1-5.79,4.46,18.06,18.06,0,0,1-7.49,1.58q-8.27,0-13-4.74T46.63,76.21l-.05-24.45,9.66,0,0,23.09q0,5.76,2.53,8.61A9,9,0,0,0,66,86.27a10.6,10.6,0,0,0,8.22-3.35q3-3.33,3-9.58l0-21.65"/><path class="cls-2" d="M103,93.65a24.32,24.32,0,0,1-7.66-3.43L99,82.59a23.49,23.49,0,0,0,6.69,3.08,26.7,26.7,0,0,0,7.69,1.14q8.66,0,8.65-4.75a3.17,3.17,0,0,0-2.21-3.12,37.5,37.5,0,0,0-7.07-1.67,54.84,54.84,0,0,1-8.31-1.82,12.7,12.7,0,0,1-5.57-3.64q-2.37-2.59-2.37-7.25a11.53,11.53,0,0,1,4.89-9.75q4.89-3.66,13.24-3.68a37.42,37.42,0,0,1,8.5,1,23.31,23.31,0,0,1,7,2.67l-3.7,7.62a22.21,22.21,0,0,0-11.82-3.18,12.66,12.66,0,0,0-6.45,1.34,4,4,0,0,0-2.2,3.49,3.48,3.48,0,0,0,2.37,3.4,35.76,35.76,0,0,0,7.3,1.87,54.63,54.63,0,0,1,8.11,1.83,12.68,12.68,0,0,1,5.46,3.51q2.28,2.49,2.29,7a11.27,11.27,0,0,1-5,9.63Q121.45,95,112.8,95A35.57,35.57,0,0,1,103,93.65"/><path class="cls-2" d="M163.05,92a11.14,11.14,0,0,1-4.13,2.17,18,18,0,0,1-5.13.74q-6.79,0-10.52-3.67T139.54,80.5l-.07-38.4,9.66,0,0,10,9.66,0,0,10-9.66,0,0,18.11A6.83,6.83,0,0,0,150.72,85a5.44,5.44,0,0,0,4.21,1.64,8.35,8.35,0,0,0,5.41-1.78"/><rect class="cls-1" x="24.58" y="18.53" width="9.95" height="10.33" transform="translate(-0.05 0.06) rotate(-0.12)"/><path class="cls-3" d="M162.93,37.89a12.19,12.19,0,0,1-3.68-1.6L161,32.75a11.49,11.49,0,0,0,3.22,1.43,13.43,13.43,0,0,0,3.71.54q4.17,0,4.17-2.19a1.48,1.48,0,0,0-1.07-1.46,18.58,18.58,0,0,0-3.4-.78,28.26,28.26,0,0,1-4-.85,6.21,6.21,0,0,1-2.68-1.7,4.71,4.71,0,0,1-1.14-3.37,5.3,5.3,0,0,1,2.37-4.52,10.73,10.73,0,0,1,6.38-1.69,18.54,18.54,0,0,1,4.1.46A11.57,11.57,0,0,1,176,19.87l-1.79,3.54a11,11,0,0,0-5.7-1.49,6.27,6.27,0,0,0-3.1.61,1.83,1.83,0,0,0-1.06,1.62,1.6,1.6,0,0,0,1.13,1.58,17.83,17.83,0,0,0,3.52.88,27.91,27.91,0,0,1,3.91.85,6.2,6.2,0,0,1,2.62,1.64,4.58,4.58,0,0,1,1.1,3.28,5.17,5.17,0,0,1-2.42,4.46,11.4,11.4,0,0,1-6.59,1.68,17.91,17.91,0,0,1-4.73-.63"/><path class="cls-3" d="M191.86,37.18a5.38,5.38,0,0,1-2,1,8.67,8.67,0,0,1-2.47.34,7,7,0,0,1-5.06-1.71,6.6,6.6,0,0,1-1.79-5V14h4.65v4.54h5.32v3.72h-5.32v9.46a3.11,3.11,0,0,0,.73,2.21,2.66,2.66,0,0,0,2,.77,4.1,4.1,0,0,0,2.6-.82"/><path class="cls-3" d="M214.45,18.38V38.26H210V35.69a7.22,7.22,0,0,1-2.85,2.12,9.66,9.66,0,0,1-3.74.71,10.5,10.5,0,0,1-5.19-1.27,9,9,0,0,1-3.58-3.57,10.9,10.9,0,0,1-1.28-5.36A10.79,10.79,0,0,1,194.66,23a9.08,9.08,0,0,1,3.58-3.56,10.6,10.6,0,0,1,5.19-1.26,9.21,9.21,0,0,1,3.56.67,7.71,7.71,0,0,1,2.8,2V18.38M208.2,32.82a6.18,6.18,0,0,0,1.67-4.5,6.18,6.18,0,0,0-1.67-4.5A5.7,5.7,0,0,0,204,22.1a5.62,5.62,0,0,0-4.22,1.72,6.21,6.21,0,0,0-1.66,4.5,6.21,6.21,0,0,0,1.66,4.5A5.59,5.59,0,0,0,204,34.54a5.67,5.67,0,0,0,4.25-1.72"/><path class="cls-3" d="M237.86,20.35c1.52,1.47,2.27,3.64,2.27,6.52V38.26h-4.65V27.46a5.57,5.57,0,0,0-1.23-3.92,4.54,4.54,0,0,0-3.5-1.32,5.35,5.35,0,0,0-4.05,1.54,6.12,6.12,0,0,0-1.49,4.45v10h-4.66V18.38H225V21a7.27,7.27,0,0,1,2.9-2.08,10.34,10.34,0,0,1,4-.71,8.31,8.31,0,0,1,6,2.19"/><path class="cls-3" d="M265.7,10.64V38.26h-4.46V35.69a7.22,7.22,0,0,1-2.85,2.12,9.66,9.66,0,0,1-3.74.71,10.44,10.44,0,0,1-5.16-1.27,9.11,9.11,0,0,1-3.59-3.59,10.83,10.83,0,0,1-1.3-5.34A10.72,10.72,0,0,1,245.9,23a9.22,9.22,0,0,1,3.59-3.58,10.54,10.54,0,0,1,5.16-1.26,9.36,9.36,0,0,1,3.61.67,7.24,7.24,0,0,1,2.79,2V10.64m-2.83,23.13a5.56,5.56,0,0,0,2.13-2.17,7.29,7.29,0,0,0,0-6.56,5.56,5.56,0,0,0-2.13-2.17,6.29,6.29,0,0,0-6,0A5.53,5.53,0,0,0,250.07,25a7.29,7.29,0,0,0,0,6.56,5.53,5.53,0,0,0,2.12,2.17,6.29,6.29,0,0,0,6,0"/><path class="cls-3" d="M291.24,18.38V38.26h-4.43V35.69A7.22,7.22,0,0,1,284,37.81a9.62,9.62,0,0,1-3.74.71A10.45,10.45,0,0,1,275,37.25a9,9,0,0,1-3.58-3.57,10.9,10.9,0,0,1-1.28-5.36A10.79,10.79,0,0,1,271.45,23,9.08,9.08,0,0,1,275,19.42a10.55,10.55,0,0,1,5.19-1.26,9.09,9.09,0,0,1,3.55.67,7.7,7.7,0,0,1,2.82,2V18.38M285,32.82a6.18,6.18,0,0,0,1.67-4.5,6.18,6.18,0,0,0-1.67-4.5,5.72,5.72,0,0,0-4.25-1.72,5.66,5.66,0,0,0-4.23,1.72,6.21,6.21,0,0,0-1.65,4.5,6.21,6.21,0,0,0,1.65,4.5,5.62,5.62,0,0,0,4.23,1.72A5.68,5.68,0,0,0,285,32.82"/><path class="cls-3" d="M308.84,18.16v4.43a5.32,5.32,0,0,0-1.07-.11,5.61,5.61,0,0,0-4.25,1.58A6.28,6.28,0,0,0,302,28.62v9.64h-4.65V18.38h4.42v2.9q2-3.12,7.07-3.12"/><path class="cls-3" d="M336.83,37.89a12.08,12.08,0,0,1-3.68-1.6l1.79-3.54a11.3,11.3,0,0,0,3.21,1.43,13.43,13.43,0,0,0,3.71.54q4.17,0,4.17-2.19A1.47,1.47,0,0,0,345,31.07a18.73,18.73,0,0,0-3.41-.78,28.26,28.26,0,0,1-4-.85,6.21,6.21,0,0,1-2.68-1.7,4.71,4.71,0,0,1-1.14-3.37,5.3,5.3,0,0,1,2.37-4.52,10.73,10.73,0,0,1,6.38-1.69,18.54,18.54,0,0,1,4.1.46,11.69,11.69,0,0,1,3.35,1.25l-1.79,3.54a11,11,0,0,0-5.7-1.49,6.27,6.27,0,0,0-3.1.61,1.84,1.84,0,0,0-1.07,1.62c0,.75.86,1.27,1.62,1.58a11.89,11.89,0,0,0,3,.88,27.41,27.41,0,0,1,3.9.85,6.18,6.18,0,0,1,2.63,1.64,4.58,4.58,0,0,1,1.1,3.28,5.17,5.17,0,0,1-2.42,4.46,11.4,11.4,0,0,1-6.59,1.68,17.91,17.91,0,0,1-4.73-.63"/><path class="cls-3" d="M331.21,11V38.63h-4.47V36.06a7.09,7.09,0,0,1-2.84,2.12,9.67,9.67,0,0,1-3.75.71A10.5,10.5,0,0,1,315,37.63a9.14,9.14,0,0,1-3.59-3.6,10.72,10.72,0,0,1-1.3-5.34,10.62,10.62,0,0,1,1.3-5.32A9.06,9.06,0,0,1,315,19.8a10.4,10.4,0,0,1,5.15-1.27,9.45,9.45,0,0,1,3.62.67,7.35,7.35,0,0,1,2.79,2V11m-2.83,23.14A5.56,5.56,0,0,0,325.85,32a7.27,7.27,0,0,0,0-6.55,5.49,5.49,0,0,0-2.12-2.18,6.36,6.36,0,0,0-6,0,5.43,5.43,0,0,0-2.12,2.18,6.54,6.54,0,0,0-.78,3.27,6.6,6.6,0,0,0,.78,3.28,5.49,5.49,0,0,0,2.12,2.18,6.36,6.36,0,0,0,6,0"/></g></g></svg>