<svg xmlns="http://www.w3.org/2000/svg" viewBox="0 0 321.66 132.99"><defs><style>.cls-1{fill:#a9c23f;}.cls-2{fill:#fff;}.cls-3{fill:#1d1d1b;}</style></defs><g id="Слой_2" data-name="Слой 2"><g id="Layer_1" data-name="Layer 1"><path class="cls-1" d="M321.55,0,210.75.22a14,14,0,0,0-13.92,14l.11,53.44,110.8-.22a13.94,13.94,0,0,0,13.92-13.95c0-17-.09-44.41-.11-53.46"/><path class="cls-2" d="M295,35.11l11.71,14.64h-7l-9.05-11L286,43.24c0,2.11,0,4.25,0,6.52l-5.58,0c0-11.82,0-23.66-.06-35.69h5.5c0,7.08,0,14.24,0,21.41l.56.25,12.29-11.48,6.94,0L295,35.11"/><path class="cls-2" d="M255.55,49.9l-5.19,0c-.11-.93-.22-1.81-.36-3A12.58,12.58,0,0,1,238.18,50a12.06,12.06,0,0,1-7-4.28c-3.85-4.82-3.65-13,.39-17.51,4.38-4.88,11.36-5.35,18-1.07.13-.95.25-1.81.38-2.78h5.49c0,8.43,0,16.88.05,25.51m-13.4-4.56c4.65,0,7.8-3.27,7.8-8.06S246.7,29.09,242.2,29s-8,3.49-7.92,8.3,3.21,8,7.87,8"/><path class="cls-2" d="M224.64,44.63l1.56,4a10.22,10.22,0,0,1-9.68,1.07,6.45,6.45,0,0,1-4.61-6.13c-.19-8.2-.1-16.41-.11-24.8l5.62,0c0,1.73,0,3.53,0,5.51h6.83c0,1.57,0,2.95,0,4.6h-6.76c0,2,0,3.77,0,5.53q0,3.21,0,6.43c0,3.89,2.15,5.4,5.88,4.2.35-.11.67-.24,1.23-.43"/><path class="cls-2" d="M275.52,45.28c.1,1.57.18,2.91.25,4.2-5.93,2.58-11.71-.71-11.82-6.81-.15-9.15-.06-18.31-.07-27.47a5,5,0,0,1,.16-.8h5.46c0,.81.11,1.64.12,2.47q0,11.48,0,23c0,.71,0,1.43.08,2.14.25,2.32,1.31,3.27,3.65,3.31h2.13"/><path class="cls-3" d="M9.36,130.36A24.11,24.11,0,0,1,0,122.72l7.34-9.11q5.84,8.16,14,8.15,11.32,0,11.31-13.2l-.1-47.19L7,61.42,7,50.28l38.71-.07.11,57.61q0,12.56-6.09,18.85t-18,6.32a28.91,28.91,0,0,1-12.42-2.63"/><path class="cls-3" d="M114.8,67l.11,54.55-12.15,0,0-6.94a20.36,20.36,0,0,1-7.65,5.68,24.41,24.41,0,0,1-9.9,2q-10.93,0-17.23-6t-6.31-18l-.07-31.15,12.77,0,.06,29.41c0,4.91,1.12,8.56,3.34,11s5.37,3.61,9.46,3.6q6.84,0,10.87-4.26t4-12.21L102,67.05"/><path class="cls-3" d="M136.16,120.5A32.22,32.22,0,0,1,126,116.13l4.88-9.71a31.2,31.2,0,0,0,8.85,3.91,36.55,36.55,0,0,0,10.16,1.47q11.44,0,11.43-6a4,4,0,0,0-2.92-4,49.6,49.6,0,0,0-9.35-2.13,74,74,0,0,1-11-2.33,16.75,16.75,0,0,1-7.37-4.63q-3.12-3.32-3.13-9.24A14.53,14.53,0,0,1,134.07,71q6.48-4.67,17.51-4.68a50.53,50.53,0,0,1,11.23,1.25A31.44,31.44,0,0,1,172,71l-4.88,9.71a30.31,30.31,0,0,0-15.63-4.06q-5.62,0-8.53,1.71a5,5,0,0,0-2.9,4.45,4.42,4.42,0,0,0,3.12,4.33,49.34,49.34,0,0,0,9.66,2.38,74.28,74.28,0,0,1,10.73,2.33,16.82,16.82,0,0,1,7.21,4.48q3,3.17,3,9a14.2,14.2,0,0,1-6.62,12.27q-6.63,4.62-18.07,4.64a49.14,49.14,0,0,1-13-1.72"/><path class="cls-3" d="M215.57,118.41a15,15,0,0,1-5.45,2.76,24.77,24.77,0,0,1-6.8.94q-9,0-13.9-4.67t-4.93-13.68l-.09-48.93,12.76,0,0,12.77,12.77,0,0,12.77-12.77,0,0,23.08a8.51,8.51,0,0,0,2,6.07,7.33,7.33,0,0,0,5.58,2.08,11.17,11.17,0,0,0,7.14-2.26"/><rect class="cls-1" x="32.5" y="24.8" width="13.16" height="13.16" transform="translate(-0.06 0.08) rotate(-0.12)"/></g></g></svg>