<svg xmlns="http://www.w3.org/2000/svg" viewBox="0 0 349.93 133.12"><defs><style>.cls-1{fill:#784e90;}.cls-2{fill:#fff;}.cls-3{fill:#1d1d1b;}</style></defs><g id="Слой_2" data-name="Слой 2"><g id="Layer_1" data-name="Layer 1"><path class="cls-1" d="M349.93,0H211a14,14,0,0,0-14,14V67.66h139a14,14,0,0,0,14-14c0-17,0-44.58,0-53.67"/><path class="cls-2" d="M214.22,48A8.21,8.21,0,0,1,212,41.85V14.39h6v27q0,3.82,3.59,3.82a4.68,4.68,0,0,0,2.14-.48l.29,4.78a10.28,10.28,0,0,1-3.58.62A8.48,8.48,0,0,1,214.22,48"/><path class="cls-2" d="M246.64,42.33,249.79,46a10.44,10.44,0,0,1-4.3,3.1,15.9,15.9,0,0,1-5.93,1,15.68,15.68,0,0,1-7.4-1.67,12,12,0,0,1-4.95-4.66,13.16,13.16,0,0,1-1.74-6.76,13.36,13.36,0,0,1,1.7-6.71,12,12,0,0,1,4.68-4.65A13.53,13.53,0,0,1,238.61,24a13.68,13.68,0,0,1,6.52,1.56A11.64,11.64,0,0,1,249.79,30a12.94,12.94,0,0,1,1.72,6.76L232,40.61A6.66,6.66,0,0,0,234.88,44a9.54,9.54,0,0,0,4.83,1.15,9.44,9.44,0,0,0,6.93-2.77M233.28,31a8.08,8.08,0,0,0-2,5.78v0L245.67,34a6.73,6.73,0,0,0-2.5-3.78,7.36,7.36,0,0,0-4.56-1.43A7,7,0,0,0,233.28,31"/><path class="cls-2" d="M282.17,24.32V49.83h-5.68v-3.3a9.33,9.33,0,0,1-3.66,2.73,12.4,12.4,0,0,1-4.8.9,13.57,13.57,0,0,1-6.66-1.62A11.52,11.52,0,0,1,256.78,44a14,14,0,0,1-1.65-6.88,13.86,13.86,0,0,1,1.65-6.85,11.57,11.57,0,0,1,4.59-4.56A13.47,13.47,0,0,1,268,24a11.83,11.83,0,0,1,4.56.86,10.14,10.14,0,0,1,3.61,2.53v-3.1m-2.05,18.53a7.91,7.91,0,0,0,2.15-5.78,8,8,0,0,0-2.15-5.78,7.32,7.32,0,0,0-5.45-2.19,7.21,7.21,0,0,0-5.42,2.19,8,8,0,0,0-2.13,5.78,7.94,7.94,0,0,0,2.13,5.78,7.18,7.18,0,0,0,5.42,2.2,7.29,7.29,0,0,0,5.45-2.2"/><path class="cls-2" d="M304.77,24v5.69a7.34,7.34,0,0,0-1.39-.15,7.21,7.21,0,0,0-5.44,2,8.11,8.11,0,0,0-2,5.86V49.83h-6V24.32h5.69v3.73q2.58-4,9.08-4"/><path class="cls-2" d="M332,26.85Q335,29.67,335,35.21V49.83h-6V36a7.16,7.16,0,0,0-1.57-5,5.85,5.85,0,0,0-4.49-1.7,6.9,6.9,0,0,0-5.21,2,7.88,7.88,0,0,0-1.91,5.71v12.9h-6V24.32h5.68v3.3a9.39,9.39,0,0,1,3.73-2.68A13.46,13.46,0,0,1,324.3,24,10.67,10.67,0,0,1,332,26.85"/><path class="cls-3" d="M9.37,130.48A24.07,24.07,0,0,1,0,122.84l7.34-9.11q5.84,8.16,14,8.15,11.34,0,11.31-13.21l-.09-47.22L7,61.51,7,50.37l38.73-.08.12,57.64q0,12.57-6.1,18.87t-18,6.32a28.77,28.77,0,0,1-12.42-2.64"/><path class="cls-3" d="M114.86,67.11l.11,54.58-12.16,0v-6.95a20.23,20.23,0,0,1-7.66,5.69,24.42,24.42,0,0,1-9.91,2q-10.94,0-17.23-6t-6.32-18l-.06-31.17,12.77,0,.06,29.43q0,7.37,3.35,11t9.46,3.61q6.84,0,10.87-4.27t4-12.22l0-27.59"/><path class="cls-3" d="M136.23,120.62a32.56,32.56,0,0,1-10.12-4.37l4.88-9.72a31.62,31.62,0,0,0,8.85,3.92A36.61,36.61,0,0,0,150,111.91q11.44,0,11.44-6a4,4,0,0,0-2.92-4,49.94,49.94,0,0,0-9.36-2.13,75.49,75.49,0,0,1-11-2.33,16.84,16.84,0,0,1-7.37-4.63q-3.12-3.32-3.13-9.25a14.55,14.55,0,0,1,6.46-12.43q6.48-4.65,17.52-4.68a50.62,50.62,0,0,1,11.24,1.25,31.62,31.62,0,0,1,9.21,3.41l-4.89,9.72a30.23,30.23,0,0,0-15.64-4.06q-5.62,0-8.53,1.7a5,5,0,0,0-2.9,4.46,4.42,4.42,0,0,0,3.12,4.33,49.34,49.34,0,0,0,9.66,2.38A75.83,75.83,0,0,1,163.67,92a16.88,16.88,0,0,1,7.21,4.49q3,3.16,3,9a14.21,14.21,0,0,1-6.61,12.28q-6.65,4.62-18.08,4.64a49.29,49.29,0,0,1-13-1.72"/><path class="cls-3" d="M215.69,118.52a15,15,0,0,1-5.46,2.77,24.69,24.69,0,0,1-6.79.94q-9,0-13.91-4.68t-4.93-13.68l-.1-48.95,12.77,0,0,12.78,12.78,0,0,12.78-12.78,0,.05,23.09a8.46,8.46,0,0,0,2,6.07A7.34,7.34,0,0,0,205,111.7a11.28,11.28,0,0,0,7.15-2.26"/><rect class="cls-1" x="32.52" y="24.87" width="13.17" height="13.17" transform="translate(-0.06 0.08) rotate(-0.11)"/></g></g></svg>